<mxfile modified="2020-10-21T05:57:41.968Z" host="app.diagrams.net" agent="5.0 (Windows NT 10.0; Win64; x64) AppleWebKit/537.36 (KHTML, like Gecko) Chrome/81.0.4044.138 Safari/537.36" etag="pBOchb6b15STYHvrTGNs" version="13.8.0" type="github">
  <diagram id="Ht1M8jgEwFfnCIfOTk4-" name="Page-1">
    <mxGraphModel dx="1673" dy="1703" grid="1" gridSize="10" guides="1" tooltips="1" connect="1" arrows="1" fold="1" page="1" pageScale="1" pageWidth="1169" pageHeight="827" math="0" shadow="0">
      <root>
        <mxCell id="0" />
        <mxCell id="1" parent="0" />
        <mxCell id="rY4eyUQjChqUg5G9gw5I-65" value="" style="whiteSpace=wrap;html=1;aspect=fixed;" parent="1" vertex="1">
          <mxGeometry x="150" y="570" width="230" height="230" as="geometry" />
        </mxCell>
        <mxCell id="rY4eyUQjChqUg5G9gw5I-66" value="IDC内服务集群" style="rounded=1;whiteSpace=wrap;html=1;fillColor=#dae8fc;strokeColor=#6c8ebf;" parent="1" vertex="1">
          <mxGeometry x="160" y="600" width="210" height="60" as="geometry" />
        </mxCell>
        <mxCell id="rY4eyUQjChqUg5G9gw5I-67" value="IDC-B" style="text;html=1;strokeColor=none;fillColor=none;align=center;verticalAlign=middle;whiteSpace=wrap;rounded=0;" parent="1" vertex="1">
          <mxGeometry x="150" y="570" width="60" height="20" as="geometry" />
        </mxCell>
        <mxCell id="rY4eyUQjChqUg5G9gw5I-69" value="" style="endArrow=classic;startArrow=classic;html=1;exitX=0.5;exitY=1;exitDx=0;exitDy=0;fillColor=#e3c800;strokeColor=#B09500;strokeWidth=2;entryX=0.5;entryY=0;entryDx=0;entryDy=0;" parent="1" source="rY4eyUQjChqUg5G9gw5I-66" target="tyd7KwF-m_1Z6RTIm-yy-1" edge="1">
          <mxGeometry width="50" height="50" relative="1" as="geometry">
            <mxPoint x="510" y="920" as="sourcePoint" />
            <mxPoint x="318.75" y="690" as="targetPoint" />
          </mxGeometry>
        </mxCell>
        <mxCell id="rY4eyUQjChqUg5G9gw5I-102" value="全球发现集群" style="whiteSpace=wrap;html=1;aspect=fixed;fillColor=#d5e8d4;strokeColor=#82b366;rounded=0;" parent="1" vertex="1">
          <mxGeometry x="530" y="340" width="110" height="110" as="geometry" />
        </mxCell>
        <mxCell id="rY4eyUQjChqUg5G9gw5I-113" value="" style="endArrow=classic;startArrow=classic;html=1;fillColor=#e51400;strokeColor=#B20000;strokeWidth=2;" parent="1" edge="1">
          <mxGeometry width="50" height="50" relative="1" as="geometry">
            <mxPoint x="90" y="-21" as="sourcePoint" />
            <mxPoint x="250" y="-21" as="targetPoint" />
          </mxGeometry>
        </mxCell>
        <mxCell id="rY4eyUQjChqUg5G9gw5I-115" value="" style="endArrow=classic;startArrow=classic;html=1;fillColor=#e3c800;strokeColor=#B09500;strokeWidth=2;" parent="1" edge="1">
          <mxGeometry width="50" height="50" relative="1" as="geometry">
            <mxPoint x="90" y="-60" as="sourcePoint" />
            <mxPoint x="250" y="-60" as="targetPoint" />
          </mxGeometry>
        </mxCell>
        <mxCell id="rY4eyUQjChqUg5G9gw5I-116" value="服务注册和发现" style="text;html=1;strokeColor=none;fillColor=none;align=center;verticalAlign=middle;whiteSpace=wrap;rounded=0;" parent="1" vertex="1">
          <mxGeometry x="280" y="-70" width="90" height="20" as="geometry" />
        </mxCell>
        <mxCell id="rY4eyUQjChqUg5G9gw5I-117" value="RPC" style="text;html=1;strokeColor=none;fillColor=none;align=center;verticalAlign=middle;whiteSpace=wrap;rounded=0;" parent="1" vertex="1">
          <mxGeometry x="280" y="-30" width="60" height="20" as="geometry" />
        </mxCell>
        <mxCell id="tyd7KwF-m_1Z6RTIm-yy-1" value="发现&lt;span&gt;服务集群&lt;/span&gt;" style="rounded=1;whiteSpace=wrap;html=1;fillColor=#d5e8d4;strokeColor=#82b366;" vertex="1" parent="1">
          <mxGeometry x="160" y="710" width="210" height="60" as="geometry" />
        </mxCell>
        <mxCell id="tyd7KwF-m_1Z6RTIm-yy-2" value="" style="whiteSpace=wrap;html=1;aspect=fixed;" vertex="1" parent="1">
          <mxGeometry x="800" y="570" width="230" height="230" as="geometry" />
        </mxCell>
        <mxCell id="tyd7KwF-m_1Z6RTIm-yy-3" value="IDC内服务集群" style="rounded=1;whiteSpace=wrap;html=1;fillColor=#dae8fc;strokeColor=#6c8ebf;" vertex="1" parent="1">
          <mxGeometry x="810" y="600" width="210" height="60" as="geometry" />
        </mxCell>
        <mxCell id="tyd7KwF-m_1Z6RTIm-yy-4" value="IDC-C" style="text;html=1;strokeColor=none;fillColor=none;align=center;verticalAlign=middle;whiteSpace=wrap;rounded=0;" vertex="1" parent="1">
          <mxGeometry x="800" y="570" width="60" height="20" as="geometry" />
        </mxCell>
        <mxCell id="tyd7KwF-m_1Z6RTIm-yy-5" value="" style="endArrow=classic;startArrow=classic;html=1;exitX=0.5;exitY=1;exitDx=0;exitDy=0;fillColor=#e3c800;strokeColor=#B09500;strokeWidth=2;entryX=0.5;entryY=0;entryDx=0;entryDy=0;" edge="1" parent="1" source="tyd7KwF-m_1Z6RTIm-yy-3" target="tyd7KwF-m_1Z6RTIm-yy-6">
          <mxGeometry width="50" height="50" relative="1" as="geometry">
            <mxPoint x="1160" y="920" as="sourcePoint" />
            <mxPoint x="968.75" y="690" as="targetPoint" />
          </mxGeometry>
        </mxCell>
        <mxCell id="tyd7KwF-m_1Z6RTIm-yy-6" value="发现服务集群" style="rounded=1;whiteSpace=wrap;html=1;fillColor=#d5e8d4;strokeColor=#82b366;" vertex="1" parent="1">
          <mxGeometry x="810" y="710" width="210" height="60" as="geometry" />
        </mxCell>
        <mxCell id="tyd7KwF-m_1Z6RTIm-yy-7" value="" style="whiteSpace=wrap;html=1;aspect=fixed;" vertex="1" parent="1">
          <mxGeometry x="470" y="-40" width="230" height="230" as="geometry" />
        </mxCell>
        <mxCell id="tyd7KwF-m_1Z6RTIm-yy-8" value="IDC内服务集群" style="rounded=1;whiteSpace=wrap;html=1;fillColor=#dae8fc;strokeColor=#6c8ebf;" vertex="1" parent="1">
          <mxGeometry x="480" y="100" width="210" height="60" as="geometry" />
        </mxCell>
        <mxCell id="tyd7KwF-m_1Z6RTIm-yy-9" value="IDC-A" style="text;html=1;strokeColor=none;fillColor=none;align=center;verticalAlign=middle;whiteSpace=wrap;rounded=0;" vertex="1" parent="1">
          <mxGeometry x="470" y="-40" width="60" height="20" as="geometry" />
        </mxCell>
        <mxCell id="tyd7KwF-m_1Z6RTIm-yy-10" value="" style="endArrow=classic;startArrow=classic;html=1;exitX=0.5;exitY=0;exitDx=0;exitDy=0;fillColor=#e3c800;strokeColor=#B09500;strokeWidth=2;entryX=0.5;entryY=1;entryDx=0;entryDy=0;" edge="1" parent="1" source="tyd7KwF-m_1Z6RTIm-yy-8" target="tyd7KwF-m_1Z6RTIm-yy-11">
          <mxGeometry width="50" height="50" relative="1" as="geometry">
            <mxPoint x="830" y="310" as="sourcePoint" />
            <mxPoint x="638.75" y="80" as="targetPoint" />
          </mxGeometry>
        </mxCell>
        <mxCell id="tyd7KwF-m_1Z6RTIm-yy-11" value="发现服务集群" style="rounded=1;whiteSpace=wrap;html=1;fillColor=#d5e8d4;strokeColor=#82b366;" vertex="1" parent="1">
          <mxGeometry x="480" y="-10" width="210" height="60" as="geometry" />
        </mxCell>
        <mxCell id="tyd7KwF-m_1Z6RTIm-yy-12" value="" style="endArrow=classic;startArrow=classic;html=1;exitX=0.5;exitY=0;exitDx=0;exitDy=0;entryX=0.5;entryY=1;entryDx=0;entryDy=0;fillColor=#e3c800;strokeColor=#B09500;strokeWidth=2;" edge="1" parent="1" source="rY4eyUQjChqUg5G9gw5I-66" target="rY4eyUQjChqUg5G9gw5I-102">
          <mxGeometry width="50" height="50" relative="1" as="geometry">
            <mxPoint x="280" y="510" as="sourcePoint" />
            <mxPoint x="590" y="510" as="targetPoint" />
            <Array as="points">
              <mxPoint x="265" y="520" />
              <mxPoint x="585" y="520" />
            </Array>
          </mxGeometry>
        </mxCell>
        <mxCell id="tyd7KwF-m_1Z6RTIm-yy-14" value="" style="endArrow=classic;startArrow=classic;html=1;strokeWidth=2;fillColor=#e3c800;strokeColor=#B09500;" edge="1" parent="1" source="rY4eyUQjChqUg5G9gw5I-102" target="tyd7KwF-m_1Z6RTIm-yy-8">
          <mxGeometry width="50" height="50" relative="1" as="geometry">
            <mxPoint x="590" y="250" as="sourcePoint" />
            <mxPoint x="650" y="190" as="targetPoint" />
          </mxGeometry>
        </mxCell>
        <mxCell id="tyd7KwF-m_1Z6RTIm-yy-17" value="" style="endArrow=classic;startArrow=classic;html=1;entryX=1;entryY=0.5;entryDx=0;entryDy=0;exitX=0;exitY=0.5;exitDx=0;exitDy=0;fillColor=#e51400;strokeColor=#B20000;strokeWidth=2;" edge="1" parent="1" source="tyd7KwF-m_1Z6RTIm-yy-3" target="rY4eyUQjChqUg5G9gw5I-66">
          <mxGeometry width="50" height="50" relative="1" as="geometry">
            <mxPoint x="530" y="800" as="sourcePoint" />
            <mxPoint x="580" y="750" as="targetPoint" />
          </mxGeometry>
        </mxCell>
        <mxCell id="tyd7KwF-m_1Z6RTIm-yy-20" value="" style="endArrow=classic;startArrow=classic;html=1;strokeWidth=2;exitX=0.5;exitY=0;exitDx=0;exitDy=0;fillColor=#e3c800;strokeColor=#B09500;" edge="1" parent="1" source="tyd7KwF-m_1Z6RTIm-yy-3">
          <mxGeometry width="50" height="50" relative="1" as="geometry">
            <mxPoint x="535" y="500" as="sourcePoint" />
            <mxPoint x="585" y="450" as="targetPoint" />
            <Array as="points">
              <mxPoint x="915" y="520" />
              <mxPoint x="585" y="520" />
            </Array>
          </mxGeometry>
        </mxCell>
        <mxCell id="tyd7KwF-m_1Z6RTIm-yy-23" value="" style="endArrow=classic;startArrow=classic;html=1;strokeWidth=2;exitX=0.5;exitY=0;exitDx=0;exitDy=0;entryX=0;entryY=0.5;entryDx=0;entryDy=0;fillColor=#e51400;strokeColor=#B20000;" edge="1" parent="1" source="rY4eyUQjChqUg5G9gw5I-66" target="tyd7KwF-m_1Z6RTIm-yy-8">
          <mxGeometry width="50" height="50" relative="1" as="geometry">
            <mxPoint x="210" y="390" as="sourcePoint" />
            <mxPoint x="260" y="340" as="targetPoint" />
            <Array as="points">
              <mxPoint x="265" y="130" />
            </Array>
          </mxGeometry>
        </mxCell>
        <mxCell id="tyd7KwF-m_1Z6RTIm-yy-24" value="" style="endArrow=classic;startArrow=classic;html=1;strokeWidth=2;entryX=1;entryY=0.5;entryDx=0;entryDy=0;exitX=0.5;exitY=0;exitDx=0;exitDy=0;fillColor=#e51400;strokeColor=#B20000;" edge="1" parent="1" source="tyd7KwF-m_1Z6RTIm-yy-3" target="tyd7KwF-m_1Z6RTIm-yy-8">
          <mxGeometry width="50" height="50" relative="1" as="geometry">
            <mxPoint x="880" y="250" as="sourcePoint" />
            <mxPoint x="930" y="200" as="targetPoint" />
            <Array as="points">
              <mxPoint x="915" y="130" />
            </Array>
          </mxGeometry>
        </mxCell>
      </root>
    </mxGraphModel>
  </diagram>
</mxfile>
